<svg width="40" height="40" viewBox="0 0 40 40" fill="none" xmlns="http://www.w3.org/2000/svg">
  <!-- Scaffald Logo - Terracotta "S" mark -->
  <path d="M20 4C11.163 4 4 11.163 4 20C4 28.837 11.163 36 20 36C28.837 36 36 28.837 36 20C36 11.163 28.837 4 20 4ZM20 6C27.732 6 34 12.268 34 20C34 27.732 27.732 34 20 34C12.268 34 6 27.732 6 20C6 12.268 12.268 6 20 6Z" fill="#fb612a"/>
  <path d="M24 12C21.791 12 20 13.791 20 16C20 17.105 20.448 18.105 21.172 18.828L16.414 23.586C15.691 22.862 14.691 22.414 13.586 22.414C11.377 22.414 9.586 24.205 9.586 26.414C9.586 28.623 11.377 30.414 13.586 30.414C15.795 30.414 17.586 28.623 17.586 26.414C17.586 25.309 17.138 24.309 16.414 23.586L21.172 18.828C21.895 19.552 22.895 20 24 20C26.209 20 28 18.209 28 16C28 13.791 26.209 12 24 12ZM24 14C25.105 14 26 14.895 26 16C26 17.105 25.105 18 24 18C22.895 18 22 17.105 22 16C22 14.895 22.895 14 24 14ZM13.586 24.414C14.691 24.414 15.586 25.309 15.586 26.414C15.586 27.519 14.691 28.414 13.586 28.414C12.481 28.414 11.586 27.519 11.586 26.414C11.586 25.309 12.481 24.414 13.586 24.414Z" fill="#fb612a"/>
</svg>
